<svg width="208" height="199" viewBox="0 0 208 199" fill="none" xmlns="http://www.w3.org/2000/svg">
	<g filter="url(#filter0_d_80_2651)">
	<path d="M204 140.991C204 167.61 182.219 189.189 155.351 189.189C128.483 189.189 106.703 167.61 106.703 140.991C106.703 114.372 128.483 92.793 155.351 92.793C182.219 92.793 204 114.372 204 140.991Z" fill="#A58EE2"/>
	<circle cx="104.45" cy="48.1982" r="48.1982" fill="#C4906B"/>
	<ellipse cx="52.1982" cy="141.442" rx="48.1982" ry="48.6486" fill="#389EA8"/>
	<path d="M59.4572 132.885C59.4555 132.888 59.4537 132.891 59.4519 132.894L55.6874 139.414L122.919 139.414C122.921 139.414 122.924 139.414 122.926 139.414C125.411 139.419 127.423 141.434 127.423 143.919C127.423 146.407 125.406 148.423 122.919 148.423H51.0062C46.1516 148.423 43.1174 143.168 45.5447 138.964L51.5795 128.511C52.8234 126.357 55.5783 125.619 57.7328 126.863L57.8639 126.938C59.946 128.14 60.6593 130.803 59.4572 132.885Z" fill="white"/>
	<path d="M67.8178 118.404L99.1557 64.1251C99.1576 64.1217 99.1596 64.1184 99.1615 64.115L104.45 54.955L110.551 65.5224C111.796 67.6739 114.549 68.4104 116.702 67.1672C118.857 65.9234 119.595 63.1684 118.351 61.014L109.911 46.3964C107.484 42.1922 101.416 42.1922 98.9886 46.3964L60.0157 113.899C58.7719 116.054 59.51 118.809 61.6645 120.053C63.819 121.297 66.5739 120.558 67.8178 118.404Z" fill="white"/>
	<path d="M118.983 80.1259L118.985 80.1305L153.213 139.414L140.036 139.414C140.033 139.414 140.03 139.414 140.028 139.414C137.544 139.419 135.531 141.434 135.531 143.919C135.531 146.407 137.548 148.423 140.036 148.423H157.894C162.749 148.423 165.783 143.168 163.355 138.964L126.787 75.626C125.543 73.4715 122.788 72.7333 120.634 73.9772C118.481 75.2202 117.742 77.9721 118.983 80.1259Z" fill="white"/>
	</g>
	<defs>
	<filter id="filter0_d_80_2651" x="0" y="0" width="208" height="198.09" filterUnits="userSpaceOnUse" color-interpolation-filters="sRGB">
	<feFlood flood-opacity="0" result="BackgroundImageFix"/>
	<feColorMatrix in="SourceAlpha" type="matrix" values="0 0 0 0 0 0 0 0 0 0 0 0 0 0 0 0 0 0 127 0" result="hardAlpha"/>
	<feOffset dy="4"/>
	<feGaussianBlur stdDeviation="2"/>
	<feComposite in2="hardAlpha" operator="out"/>
	<feColorMatrix type="matrix" values="0 0 0 0 0 0 0 0 0 0 0 0 0 0 0 0 0 0 0.25 0"/>
	<feBlend mode="normal" in2="BackgroundImageFix" result="effect1_dropShadow_80_2651"/>
	<feBlend mode="normal" in="SourceGraphic" in2="effect1_dropShadow_80_2651" result="shape"/>
	</filter>
	</defs>
</svg>
	